<!-- <?xml version="1.0" encoding="UTF-8" standalone="no"?>
<!DOCTYPE svg PUBLIC "-//W3C//DTD SVG 1.1//EN" "http://www.w3.org/Graphics/SVG/1.1/DTD/svg11.dtd"> -->


<svg t="1570608919604" class="icon" viewBox="0 0 1024 1024" version="1.1" xmlns="http://www.w3.org/2000/svg" p-id="2086" width="200" height="200"><path d="M661.08416 896.65792c-4.35968-3.80416-9.44896-7.89504-14.36672-11.72224a581.9648 581.9648 0 0 0-15.17312-11.4048 733.97248 733.97248 0 0 0-31.45728-21.5808 817.75872 817.75872 0 0 0-66.11712-38.60224 863.19872 863.19872 0 0 0-141.73184-58.90304 795.67872 795.67872 0 0 0-74.4832-19.61728c-25.14176-5.30944-50.52416-9.78432-76.12928-12.60032-51.15648-6.13632-103.0144-7.0656-154.5856-3.136 51.35616-6.08768 103.424-7.36 155.20256-3.34592 25.91744 1.75872 51.70944 5.19424 77.36064 9.49504a806.30784 806.30784 0 0 1 76.2752 16.70144 879.76448 879.76448 0 0 1 146.81088 53.93152 836.608 836.608 0 0 1 69.41184 36.71296 758.35392 758.35392 0 0 1 33.40032 20.91264 592.89856 592.89856 0 0 1 16.3072 11.22048c5.44512 3.89376 10.61888 7.66976 16.192 12.1344a13.01504 13.01504 0 0 1 2.01984 18.30656 13.0432 13.0432 0 0 1-18.7136 1.69472l-0.22272-0.19712z" fill="#1296db" p-id="2087"></path><path d="M905.29024 129.03424c-3.10528-0.01024-27.04128-3.75552-44.51072-5.99296-12.1088-1.55392-17.64096 8.7552-35.01824 9.50272-23.37024 1.00608-46.12096-0.59904-56.71168 2.58816-12.06016 3.63264-21.59616 14.2336-21.90592 15.2832-3.42784 0.9472-6.85056 2.53184-10.19392 4.9536-2.4576 1.73568-5.62176 4.94592-5.83424 5.17888-6.92992 7.57248-3.38944 13.03552-3.38944 13.03552 5.19424 8.27904 56.63744 1.18528 73.36448-4.64384 10.21696 0.81152 17.32864 14.1952 14.69696 28.30592 0 0-7.75168 35.80928-39.49824 49.75872-50.67008 22.25408-83.5968 10.83136-140.0576 44.09856-64.9856 38.28736-91.70432 80.04352-118.37952 170.36032 0 0-79.32928 235.968-271.26016 166.33344 0 0-5.41952-2.57536-9.5616-2.39872-9.72032 0.41472-16.67328 11.53792 5.92896 22.84288 23.104 11.5584 197.46304 70.68416 308.20096-142.14144a1414.28736 1414.28736 0 0 0 5.11232-9.90464c2.11968 1.11104 17.9712 9.1136 38.39744 11.10528 21.96736 2.14784 25.41568 10.87744 27.48416 22.00064 2.05568 11.16928 2.01216 31.69536-10.92608 42.46272-1.42592 1.17504-78.02624 68.98176-79.6672 71.9232-19.15392 20.76672-7.70048 39.90272 35.17696 70.74816 43.73504 31.4624 66.19648 77.47328 76.12416 90.14528 6.22848 7.95392 25.12128-7.23968 9.58464-27.1232-1.41312-1.80736-37.97504-45.69856-50.39872-56.92672-11.20512-10.13504-39.76704-48.68608-36.25472-55.71584 16.16896-23.15008 53.32224-45.05088 88.60672-69.78048 36.81792-25.82784 61.19168-54.9888 69.95456-75.13344 10.28096-23.63648 6.12096-55.31392 2.91328-70.74048-2.26304-10.8928-9.88672-24.36864-16.6528-31.01696-6.17216-6.06976-12.76672-11.8784-20.70784-15.38048-7.89504-3.51232-16.75264-5.23008-25.48224-4.3392-4.3264 0.3328-8.69376 1.07264-12.97664 2.11456-4.23936 1.14176-8.3072 2.90816-12.48768 4.33664 4.11648-1.56416 8.13824-3.47648 12.36224-4.76928 4.27776-1.31584 8.59136-2.0096 13.02528-2.57536 8.82432-1.19296 17.97376 0.23296 26.25792 3.58912 8.33024 3.33824 15.77472 8.7296 21.9776 15.2064a86.7712 86.7712 0 0 1 12.81024 17.41056c1.9328-5.74976 6.98112-11.25376 12.07808-13.81632 5.4016-2.72128 32.51456-10.43968 60.40832-25.79456 17.21088-9.46944 32.51712-21.54496 45.26336-34.92352a624.512 624.512 0 0 0 4.95616-5.57568 70.79424 70.79424 0 0 1-9.44896-6.66112c-3.4304-2.88-6.63552-6.09792-9.16736-9.82784-2.54208-3.6992-4.44928-7.88992-5.13792-12.33664-0.57344-4.4928 0.38656-8.93952 2.03776-13.01248-1.408 4.18048-2.0608 8.59136-1.25184 12.88192 0.93184 4.24704 2.9952 8.12288 5.63968 11.52 2.63424 3.42016 5.89824 6.3232 9.36704 8.89344a66.92864 66.92864 0 0 0 10.97728 6.61504c5.27616 0.24064 10.73152-0.16128 12.40064 4.03712 2.62656 6.592 3.84768 9.81504-2.048 13.82144-2.93376 1.99168-9.5616 0.76288-13.80096-0.29184-3.3024-0.8192-6.3488 2.08384-1.33632 5.36064 15.55456 10.18368 35.6736 7.19872 40.43776-7.74912 5.59872-17.5744-6.15424-32.91136-17.07008-42.73152 1.37472-2.5472 2.37824-4.45184 2.37824-4.45184 10.83904-20.98688 11.71456-38.8224 8.71936-54.34624-4.864-25.2032-11.11296-34.52416-13.30432-41.40032-4.84608-16.14848 6.59968-37.76256 27.2768-42.14528l0.01536 0.00768s27.73504-4.47744 36.68224-23.0528c3.6096-7.50336 14.56896-29.568-26.176-29.7216z" fill="#1296db" p-id="2088"></path></svg>